<svg xmlns="http://www.w3.org/2000/svg" viewBox="0 0 800 800">
<g transform="translate(0.000000,800.000000) scale(0.100000,-0.100000)"
fill="currentColor" stroke="none">
<path d="M64 7320 c3 -69 9 -222 12 -340 4 -118 12 -362 18 -543 l11 -327
1673 -1673 1672 -1672 0 -821 c0 -752 1 -823 17 -835 9 -8 133 -139 275 -291
l260 -278 92 98 c51 53 155 164 232 247 76 82 158 170 181 195 l43 45 0 820 0
820 1675 1675 c1668 1668 1675 1675 1675 1715 0 107 40 1186 46 1228 3 26 2
47 -3 47 -4 0 -893 -885 -1974 -1966 l-1966 -1966 -1973 1973 -1972 1974 6
-125z"/>
<path d="M566 5302 c2 -53 9 -234 14 -402 l10 -305 1055 -1055 1055 -1055 0
-280 1 -280 327 -348 327 -348 3 688 2 688 -1387 1391 c-764 764 -1393 1393
-1400 1397 -9 4 -11 -17 -7 -91z"/>
<path d="M6037 4002 l-1397 -1397 0 -689 c0 -378 3 -686 8 -684 4 2 79 80 167
173 150 161 440 468 478 507 15 16 17 45 17 296 l0 278 1054 1054 1054 1055
11 399 c7 219 11 400 9 402 -2 2 -633 -626 -1401 -1394z"/>
<path d="M4247 4971 l-208 -17 -315 -315 -314 -314 292 -292 c161 -161 296
-293 300 -293 3 0 147 140 318 312 l312 312 -141 140 -142 140 113 113 113
114 37 -43 37 -43 1 76 0 76 -38 27 c-45 31 -59 31 -365 7z"/>
</g>
</svg>
