<svg xmlns="http://www.w3.org/2000/svg" height="400" viewBox="0 0 400 400" width="400"><path d="m146.830259 304v-80.481219c15.538252-1.039123 29.75055-6.960431 41.042358-16.337952h96.127383c-22.097339 56.801634-76.062796 94.893405-137.169741 96.819171m-146.830259-96.819171h95.1520014v-.886644c11.4473036 9.866023 26.0158286 16.154412 42.0177396 17.224596v80.481219c-61.1069455-1.92859-115.0724019-40.017537-137.169741-96.819171m137.169741-117.0566603v123.7488393c-32.037749-2.479213-57.3637422-29.250753-57.3637422-61.875832 0-32.622255 25.3259932-59.393795 57.3637422-61.8730073m0-90.1241687v80.4783949c-15.538252 1.0391232-29.753377 6.960431-41.042358 16.3379529h-96.127383c22.0973391-56.7988111 76.0627955-94.8905815 137.169741-96.8163478m146.830259 96.8163478h-96.124556c-11.291808-9.3775219-25.506933-15.2988297-41.045185-16.3379529v-80.4783949c61.106945 1.9257663 115.072402 40.0175367 137.169741 96.8163478m-137.169741 117.0566602v-123.7488393c32.040576 2.4792123 57.363742 29.2507523 57.363742 61.8730073 0 32.625079-25.323166 59.396619-57.363742 61.875832" fill="currentColor" fill-rule="evenodd" transform="translate(58 48)"/></svg>