<svg xmlns="http://www.w3.org/2000/svg" height="400" viewBox="0 0 400 400" width="400">

<path fill="currentColor" fill-rule="evenodd" transform="translate(71 15)" d="m215.924034 255.011763 42.075966-14.313442s-26.947723-9.166707-42.07055-14.311277c-5.586446-1.900666-9.934949-6.300555-11.855222-11.876996-7.420074-21.541601-23.734272-38.937671-44.565931-47.808888-6.446399-2.744925-10.856637-8.810603-11.471817-15.785484l-20.006364-150.915676v160.28046c-.010831 0-.021661 0-.032492 0v22.144488c32.955481 0 59.524132 27.326941 58.256946 60.543132-1.15238 30.210411-25.799675 54.818404-56.030166 55.944084-23.314042.866989-43.7113925-11.954928-53.8012197-31.059001-4.7568185-9.005432-1.4556384-20.17022 7.3789172-25.244434l3.3260905-1.910408h-39.0358041-48.0923879l39.8101951 13.542785c5.6016086 1.904995 9.9988497 6.310297 11.8714679 11.919209 8.032005 24.052731 27.1253459 43.037741 51.248437 50.938059 5.663344 1.854124 10.122319 6.263755 12.042593 11.901891l14.305113 41.999735s9.48981-27.861639 14.647362-43.005269c1.854206-5.44439 6.07924-9.745783 11.489146-11.70598 22.787673-8.25534 40.774122-26.501082 48.668578-49.447616 1.913775-5.560205 6.272026-9.9352 11.841142-11.829372" />

</svg>