<?xml version="1.0" encoding="UTF-8" standalone="no"?>
<svg xmlns="http://www.w3.org/2000/svg" version="1.1" width="150" height="150" viewBox="0 0 150 150">
  <g transform="matrix(1.4915682,0,0,1.4915682,-148.89472,1.1481795)">
    <!-- Supérieur gauche -->
    <path style="fill:currentColor;fill-opacity:1;fill-rule:nonzero;stroke:none;stroke-width:0.6058948" d="M 126.23641,35.873974 V 25.701691 h 24.9541 V 19.32869 h -24.3277 c 1.43665,-3.629068 4.90912,-6.49555 7.19686,-8.068374 1.73624,-1.21877 3.48609,-2.1856143 5.10657,-2.934579 v 8.320305 h 6.3798 V 0.0054381 c -6.10064,0 -22.95912,7.6053794 -25.40347,19.6228419 -12.00384,2.437533 -19.54114,19.221122 -19.54114,25.335388 l 44.95142,-0.01363 V 28.391137 h -6.38661 V 38.549805 H 108.8945 c 0.73535,-1.579634 1.70219,-3.315868 2.90053,-5.018057 1.55921,-2.280933 4.43931,-5.760205 8.05476,-7.190044 v 9.532258 h 6.38662" />

    <!-- Supérieur droit -->
    <path style="fill:currentColor;fill-opacity:1;fill-rule:nonzero;stroke:none;stroke-width:0.6058948" d="m 163.23928,25.63497 h 10.15186 v 24.940478 h 6.39343 V 26.261374 c 3.61544,1.43665 6.49555,4.909117 8.06837,7.183241 1.19834,1.736234 2.1788,3.492892 2.92777,5.113376 h -8.32711 v 6.393426 h 16.64741 c 0,-6.121076 -7.61219,-22.965939 -19.61603,-25.403478 C 177.04063,7.5236716 160.25704,-2.83444e-6 154.13597,-2.83444e-6 L 154.14961,44.951417 h 16.5657 V 38.557991 H 160.56346 V 8.2726363 c 1.57963,0.7625792 3.30905,1.708999 5.01805,2.8937237 2.28094,1.579634 5.76021,4.459737 7.19005,8.06838 h -9.53226 v 6.40023" />

    <!-- Inférieur droit -->   
    <path style="fill:currentColor;fill-opacity:1;fill-rule:nonzero;stroke:none;stroke-width:0.6058948" d="m 173.73771,62.89727 v 10.151858 h -24.94048 v 6.407041 h 24.29365 c -1.41623,3.608643 -4.8887,6.488745 -7.16282,8.061569 -1.73623,1.205149 -3.50651,2.165184 -5.127,2.914148 v -8.306684 h -6.37299 v 16.640604 c 6.12107,0 22.95913,-7.619 25.40347,-19.616032 12.00384,-2.451154 19.54795,-19.248357 19.54795,-25.349003 l -44.95823,0.0068 V 70.37328 h 6.3798 V 60.207794 h 30.27855 c -0.72854,1.593249 -1.68857,3.315862 -2.8801,5.018051 -1.57283,2.280933 -4.45293,5.760211 -8.06838,7.19005 v -9.518643 h -6.39342" />

    <!-- Inférieur gauche -->  
    <path style="fill:currentColor;fill-opacity:1;fill-rule:nonzero;stroke:none;stroke-width:0.6058948" d="M 136.48556,73.146459 H 126.32009 V 48.18555 h -6.38662 v 24.320884 c -3.62226,-1.429839 -6.48194,-4.909111 -8.07519,-7.190044 -1.19834,-1.736234 -2.15837,-3.492893 -2.92776,-5.106573 h 8.31349 v -6.39342 h -16.62699 c 0,6.107456 7.62581,22.96594 19.61604,25.410283 2.45115,11.997032 19.23474,19.554752 25.34219,19.554752 l -0.0204,-44.971845 h -16.54528 v 6.40023 h 10.16547 v 30.26493 c -1.60006,-0.748964 -3.31586,-1.688574 -5.02486,-2.880102 -2.28093,-1.593249 -5.77383,-4.452927 -7.18324,-8.081995 h 9.51864 v -6.366191" />
  </g>
</svg>