<svg xmlns="http://www.w3.org/2000/svg" height="400" viewBox="0 0 400 400" width="400">

<g fill="currentColor" transform="translate(49 48)">

<path d="m152 0c-83.9470753 0-152 68.0529247-152 152 0 83.947075 68.0529247 152 152 152 83.947075 0 152-68.052925 152-152 0-83.9470753-68.052925-152-152-152zm0 12.16c77.231293 0 139.84 62.6087073 139.84 139.84 0 77.231293-62.608707 139.84-139.84 139.84-77.2312927 0-139.84-62.608707-139.84-139.84 0-77.2312927 62.6087073-139.84 139.84-139.84z"/>

<path d="m271.160341 65 2.839659 11.6355248c-40.107896 9.4951558-81.089759 14.3644752-122.5 14.3644752-40.657328 0-80.9017125-4.6938629-120.3114325-13.8511467l-2.1885675-.5133285 2.8396594-11.6355248c39.1861047 9.2769305 79.2153556 14.033064 119.6603406 14.033064 39.709622 0 79.018489-4.5847554 117.522083-13.5315345z"/>

<path d="m150.5 213c40.65499 0 80.899119 4.694207 120.311293 13.851672l2.188707.513339-2.839659 11.634989c-39.188763-9.277133-79.217799-14.033615-119.660341-14.033615-39.707223 0-79.0158395 4.585092-117.5219409 13.532074l-2.1383997.501541-2.8396594-11.634989c40.1104982-9.495335 81.09214-14.365011 122.5-14.365011z"/>

<path d="m152 0c-47.948427 0-85 68.4991697-85 152 0 83.50083 37.051573 152 85 152s85-68.49917 85-152c0-83.5008303-37.051573-152-85-152zm0 12.16c39.23278 0 72.857143 62.1631084 72.857143 139.84 0 77.676892-33.624363 139.84-72.857143 139.84s-72.8571429-62.163108-72.8571429-139.84c0-77.6768916 33.6243629-139.84 72.8571429-139.84z"/>

<path d="m297 146v12h-292v-12z"/>

<path d="m158 7v292h-12v-292z"/>

</g>
</svg>