<svg xmlns="http://www.w3.org/2000/svg" height="400" viewBox="0 0 400 400" width="400">

<path fill="currentColor" fill-rule="evenodd" d="m282.372554 232c-15.449032 0-29.872454-6.20907-42.091447-16.161158-9.708143-7.911094-9.708143-22.764796 0-30.67589 12.218993-9.953882 26.642415-16.162952 42.091447-16.162952 25.984512 0 49.06343 12.364335 63.627446 31.500897-14.564016 19.134768-37.642934 31.499103-63.627446 31.499103m-85.044218-19.417022c-1.173163-2.66918-2.482575-5.266314-3.917621-7.784375-1.880953-3.300013-1.880953-7.295875 0-10.597645 1.435046-2.516304 2.744458-5.113438 3.917621-7.782618 1.41912-3.224453 5.924208-3.224453 7.343328 0 1.173163 2.66918 2.480806 5.266314 3.917621 7.782618 1.880953 3.30177 1.880953 7.297632 0 10.597645-1.436815 2.518061-2.744458 5.115195-3.917621 7.784375-1.41912 3.222696-5.924208 3.222696-7.343328 0m-79.7032 19.417022c-25.9825022 0-49.0612363-12.364335-63.625136-31.499103 14.5638997-19.136562 37.6426338-31.500897 63.625136-31.500897 15.452513 0 29.874019 6.20907 42.091112 16.162952 9.711669 7.911094 9.711669 22.764796 0 30.67589-12.217093 9.952088-26.638599 16.161158-42.091112 16.161158m85.944977 27.610256c.406631-9.614224 2.473821-19.471574 5.918542-28.978535 3.494877-9.646402 15.245976-13.391623 23.643713-7.477928 14.03504 9.88059 31.156535 15.683447 49.637647 15.683447 27.339219 0 51.631393-12.569283 67.411185-32.266105 7.518196 12.097331 11.863953 26.363137 11.863953 41.644353 0 38.819796-28.016341 71.103778-64.971399 77.823724-4.788215.870607-12.5357.196646-16.904745-1.943225-1.438434-.704351-3.124072-.983232-4.893903-.670385-3.156316.557761-5.746574 3.144555-6.301885 6.296261-.874167 4.966217 2.928818 9.278137 7.74032 9.278137 1.440227 0 2.789095-.386142 3.948083-1.060103 3.45726-2.007582 7.107982-3.727344 11.086518-4.138514 43.532807-4.492477 77.45515-41.306479 77.251858-85.988126-.081529-17.531924-5.360567-33.782071-14.379894-47.313134 9.019327-13.532851 14.298365-29.782998 14.379894-47.314922.203292-44.629804-33.640233-81.4080522-77.099596-85.9720374-4.03944-.4236837-7.752859-2.1541724-11.274606-4.1742677-1.613985-.9260259-3.586235-1.2960788-5.660591-.8509427-3.007636.6471455-5.420553 3.146343-5.977655 6.1639721-.926116 4.9948196 2.8912 9.3496445 7.725989 9.3496445 1.105249 0 2.158548-.2288249 3.113325-.6399948 4.904651-2.1166308 10.163985-3.2428786 15.441231-2.4080251 37.845347 5.9798396 66.777056 38.6803551 66.777056 78.1312071 0 15.279429-4.345757 29.547022-11.863953 41.642566-15.779792-19.696823-40.071966-32.266106-67.411185-32.266106-18.481112 0-35.602607 5.804645-49.637647 15.685235-8.397737 5.911908-20.150628 2.168474-23.643713-7.477928-3.444721-9.506961-5.511911-19.364311-5.918542-28.978534-.082401-1.939649-1.626524-3.487793-3.570113-3.487793s-3.487712 1.548144-3.570113 3.487793c-.406631 9.614223-2.475613 19.471573-5.918541 28.978534-3.494878 9.646402-15.245977 13.389836-23.645505 7.477928-14.033249-9.88059-31.154744-15.685235-49.635856-15.685235-27.3392193 0-51.6313929 12.569283-67.4093934 32.266106-7.5199871-12.095544-11.8657443-26.363137-11.8657443-41.642566 0-38.819795 28.0145493-71.1037783 64.9696077-77.8237235 4.788214-.8706075 12.5357-.1966465 16.908327 1.9432244 1.436643.7043518 3.122281.9832322 4.892112.6685979 3.158108-.5577609 5.744782-3.1445554 6.301885-6.2962616.874167-4.9644288-2.928818-9.2765942-7.74032-9.2765942-1.440227 0-2.789095.3863873-3.948083 1.0603483-3.45726 2.0075814-7.107982 3.7255562-11.086517 4.1367261-43.5345993 4.494265-77.4551509 41.3064796-77.251859 85.9881266.081529 17.531924 5.3605671 33.782071 14.3798941 47.314922-9.019327 13.531063-14.2983651 29.78121-14.3798941 47.313134-.2032919 44.629804 33.6384413 81.408052 77.099596 85.973825 4.03944.423683 7.752859 2.152384 11.274606 4.174267 1.613985.924239 3.588027 1.294291 5.660591.849155 3.007637-.645358 5.418762-3.144555 5.977655-6.162184.926116-4.99482-2.8912-9.351432-7.725989-9.351432-1.10704 0-2.158548.228825-3.113325.641782-4.904651 2.114843-10.163985 3.241091-15.441231 2.408025-37.8435561-5.981627-66.7770557-38.682143-66.7770557-78.131207 0-15.281216 4.3457572-29.547022 11.8657443-41.644353 15.7780005 19.696822 40.0701741 32.266105 67.4093934 32.266105 18.481112 0 35.602607-5.802857 49.635856-15.683447 8.399528-5.913695 20.150627-2.168474 23.645505 7.477928 3.442928 9.506961 5.51191 19.364311 5.918541 28.978535.082401 1.937861 1.626524 3.487792 3.570113 3.487792s3.487712-1.549931 3.570113-3.487792"/>

</svg>